<?xml version="1.0" standalone="no"?>
<!DOCTYPE svg PUBLIC "-//W3C//DTD SVG 20010904//EN"
 "http://www.w3.org/TR/2001/REC-SVG-20010904/DTD/svg10.dtd">
<svg version="1.0" xmlns="http://www.w3.org/2000/svg"
 width="1850.000000pt" height="1850.000000pt" viewBox="0 0 1850.000000 1850.000000"
 preserveAspectRatio="xMidYMid meet">
<metadata>
Created by potrace 1.11, written by Peter Selinger 2001-2013
</metadata>
<g transform="translate(0.000000,1850.000000) scale(0.100000,-0.100000)"
fill="#000000" stroke="none">
<path d="M1550 17568 c-47 -25 -52 -48 -45 -233 39 -1095 353 -1855 975 -2361
200 -162 434 -311 675 -429 553 -270 1158 -415 2137 -515 256 -26 298 -26 332
1 69 54 5 229 -134 371 -106 107 -122 113 -381 138 -650 62 -1077 134 -1484
251 -268 78 -467 158 -630 254 -454 267 -753 690 -894 1267 -74 301 -130 848
-87 848 7 0 103 -25 212 -55 650 -178 1240 -440 1789 -794 916 -591 1648
-1394 2182 -2392 l97 -181 47 5 c26 3 80 17 120 31 41 13 76 23 78 20 11 -11
-134 -385 -205 -526 -39 -77 -42 -104 -15 -156 23 -45 106 -141 173 -202 l50
-45 -283 -1 c-357 0 -606 -26 -919 -95 -1529 -335 -2957 -1522 -3735 -3104
-348 -708 -549 -1416 -627 -2215 -17 -181 -17 -829 0 -1010 86 -879 331 -1618
778 -2350 424 -695 1038 -1350 1744 -1862 693 -502 1514 -866 2238 -992 279
-49 416 -60 742 -60 393 0 639 27 1000 110 618 143 1218 409 1798 800 l154
103 51 -10 c84 -15 511 -76 657 -93 1141 -132 2217 -120 3132 34 1419 239
2471 792 3140 1651 357 458 578 999 654 1597 24 186 24 538 0 717 -43 320
-116 567 -245 830 -183 373 -445 666 -785 879 -182 114 -415 212 -626 261 -63
15 -121 29 -127 31 -8 2 10 38 48 96 62 96 176 313 224 428 410 969 180 2072
-599 2868 -418 427 -930 712 -1507 836 -128 28 -326 56 -395 56 -52 0 -50 -6
-27 128 13 73 17 156 18 339 l0 243 30 6 c41 9 85 32 115 59 16 15 57 31 114
44 282 67 824 278 1186 462 248 125 640 358 640 379 0 27 -277 24 -421 -4
-101 -19 -130 -32 -272 -123 -198 -125 -400 -238 -602 -338 -198 -97 -463
-210 -471 -202 -10 10 182 200 281 280 312 252 646 401 1035 463 73 12 175 18
335 19 257 2 288 7 335 61 55 63 38 154 -44 242 -52 56 -132 98 -214 114 -79
14 -478 4 -612 -17 -490 -75 -922 -258 -1290 -544 -47 -36 -137 -117 -201
-179 l-117 -112 -16 41 c-31 77 -106 180 -204 281 -98 101 -176 158 -192 142
-5 -5 11 -59 37 -124 56 -144 108 -344 128 -497 15 -111 15 -121 -2 -171 -17
-50 -17 -55 0 -101 21 -60 21 -107 2 -256 -25 -192 -92 -424 -174 -607 -19
-41 -26 -48 -59 -53 -300 -48 -752 -194 -891 -288 -43 -29 -80 -90 -81 -133 0
-11 11 -42 24 -68 l24 -48 -31 6 c-199 40 -676 54 -902 27 -322 -38 -651 -122
-909 -232 l-69 -29 -51 40 c-829 658 -1686 1056 -2574 1195 -86 14 -160 25
-164 25 -3 0 11 40 32 89 194 447 302 913 317 1364 l6 177 28 -48 c106 -187
328 -197 654 -32 530 268 963 765 1345 1545 111 226 178 376 291 651 102 248
103 280 6 291 -148 17 -372 -109 -416 -233 -35 -100 -232 -549 -325 -738 -56
-116 -133 -256 -170 -311 -152 -223 -382 -503 -555 -675 -220 -219 -350 -280
-399 -188 -9 18 -30 45 -45 61 -27 28 -31 29 -95 25 -111 -8 -245 -89 -302
-181 l-18 -28 -6 88 c-8 99 -24 242 -32 290 l-6 32 31 -12 c44 -16 136 4 241
54 136 65 155 85 242 260 191 385 404 685 693 975 271 272 556 479 888 645 68
35 116 67 151 102 87 87 119 183 76 222 -36 33 -106 15 -279 -73 -469 -237
-841 -510 -1206 -883 -196 -201 -342 -380 -490 -604 -133 -203 -184 -291 -280
-486 l-72 -147 -28 136 c-54 268 -162 602 -257 802 -37 77 -54 99 -192 236
-131 131 -187 176 -201 162 -2 -1 15 -46 37 -98 131 -315 226 -685 263 -1037
22 -199 22 -542 0 -748 -9 -88 -19 -163 -22 -168 -2 -4 -39 50 -82 120 -511
849 -1229 1582 -2061 2105 -684 430 -1464 734 -2263 884 -119 22 -168 14 -287
-44 l-79 -39 -28 29 c-43 45 -123 104 -178 131 -65 33 -113 41 -145 25z m5880
-5443 c627 -61 1198 -256 1748 -598 61 -38 112 -73 112 -76 -1 -3 -51 -37
-113 -74 -185 -112 -185 -89 2 -190 862 -463 1545 -1178 1981 -2072 554 -1137
639 -2476 233 -3685 -35 -107 -68 -200 -71 -207 -5 -8 -28 5 -72 39 -140 108
-324 218 -366 218 -14 0 -33 -27 -69 -97 -27 -54 -98 -181 -156 -283 -800
-1400 -1918 -2379 -3284 -2872 -359 -130 -855 -245 -1250 -290 -172 -20 -677
-17 -850 5 -553 71 -1032 236 -1490 514 -285 173 -487 333 -746 592 -348 349
-603 707 -830 1166 -280 568 -443 1164 -499 1825 -14 161 -14 609 0 770 91
1078 500 2117 1197 3045 347 461 805 918 1257 1255 774 576 1643 930 2492
1014 186 18 592 19 774 1z m5748 -256 c785 -85 1432 -631 1711 -1443 277 -804
101 -1684 -464 -2321 -88 -99 -105 -130 -105 -193 0 -63 23 -113 77 -163 85
-81 200 -123 328 -121 120 2 318 -17 424 -40 667 -144 1150 -725 1278 -1538
26 -164 25 -553 -1 -695 -77 -421 -244 -769 -565 -1175 -41 -52 -165 -185
-276 -296 -418 -418 -834 -701 -1358 -923 -153 -65 -207 -76 -96 -21 155 79
414 250 579 384 108 87 309 286 402 396 290 345 473 762 519 1181 14 128 6
391 -16 514 -110 621 -484 1166 -1101 1602 -222 157 -554 335 -821 441 l-122
48 35 59 c59 97 154 292 200 412 133 340 192 690 181 1072 -9 296 -47 512
-138 786 -55 166 -191 453 -284 600 -277 436 -681 805 -1160 1056 -92 48 -280
134 -360 163 -19 7 -19 8 5 21 108 56 406 145 588 175 128 22 133 22 153 4 19
-17 20 -17 35 4 14 21 23 22 135 22 66 0 163 -5 217 -11z m-3008 -9223 c52
-18 141 -46 197 -61 57 -16 101 -30 99 -32 -3 -4 -418 43 -475 53 l-33 7 43
38 c25 22 50 36 59 33 8 -3 58 -20 110 -38z"/>
</g>
</svg>
